<?xml version="1.0" standalone="no"?>
<!DOCTYPE svg PUBLIC "-//W3C//DTD SVG 20010904//EN"
 "http://www.w3.org/TR/2001/REC-SVG-20010904/DTD/svg10.dtd">
<svg version="1.0" xmlns="http://www.w3.org/2000/svg"
 width="176.000000pt" height="176.000000pt" viewBox="0 0 176.000000 176.000000"
 preserveAspectRatio="xMidYMid meet">

<g transform="translate(0.000000,176.000000) scale(0.100000,-0.100000)"
fill="#000000" stroke="none">
<path d="M896 1393 c-23 -38 -51 -82 -61 -99 -17 -30 -21 -31 -103 -38 -109
-8 -132 -14 -125 -32 3 -8 1 -14 -5 -14 -25 0 -63 -150 -68 -270 l-4 -95 -104
-5 c-57 -3 -107 -8 -111 -12 -9 -9 -12 -324 -3 -333 4 -4 51 2 105 14 117 25
133 26 133 6 0 -8 4 -15 9 -15 5 0 12 -20 15 -44 8 -48 13 -51 143 -77 59 -12
62 -14 65 -43 l3 -31 90 0 90 0 9 31 c9 28 15 33 62 43 80 16 164 41 164 50 0
4 -39 -3 -87 -16 -154 -41 -332 -41 -477 2 -38 11 -41 15 -44 51 -2 21 -10 43
-18 47 -8 4 -14 15 -14 22 0 20 -23 19 -125 -5 -47 -11 -92 -20 -99 -20 -11 0
-14 32 -14 155 l0 155 26 1 c15 0 137 5 272 10 135 5 250 9 255 9 6 0 122 -4
258 -9 l249 -9 29 -28 c28 -27 29 -30 29 -130 l0 -102 -34 -20 c-33 -20 -34
-20 -112 -1 -44 10 -84 19 -91 19 -14 0 -16 -97 -2 -106 5 -3 9 15 9 40 0 25
4 46 10 46 5 0 43 -7 84 -16 73 -16 75 -16 110 5 l36 23 0 113 0 113 -35 31
c-30 26 -44 31 -86 31 -45 0 -50 2 -44 18 4 9 10 76 13 149 l5 131 -59 30 -58
29 59 38 c33 21 71 44 83 52 13 8 22 16 20 19 -3 2 -78 -3 -169 -11 -90 -8
-169 -15 -175 -15 -7 0 -22 41 -34 90 -12 50 -24 90 -26 90 -3 0 -24 -30 -48
-67z m55 -75 l15 -63 84 2 c47 1 103 5 125 8 21 3 37 3 34 0 -13 -13 -304 -92
-308 -83 -1 5 2 38 9 74 18 93 7 89 -15 -6 -10 -44 -23 -80 -29 -80 -6 0 -40
7 -75 15 -85 20 -90 12 -6 -10 36 -10 68 -21 70 -25 2 -4 -32 -47 -77 -96
l-81 -89 91 89 c50 50 93 88 95 85 13 -18 183 -285 186 -293 2 -6 -44 33 -102
87 -121 112 -95 110 -234 20 -47 -30 -87 -53 -89 -51 -2 2 24 49 56 103 33 55
60 105 60 112 0 6 -23 32 -51 56 l-52 45 54 6 c30 3 69 7 88 9 31 2 39 9 79
75 24 39 47 72 51 72 4 0 14 -28 22 -62z m-300 -139 c-26 -86 -42 -167 -46
-227 -3 -41 -11 -82 -19 -94 -15 -21 -15 -21 -23 8 -21 76 10 277 49 316 21
21 46 19 39 -3z m572 -39 c27 -13 27 -14 26 -109 0 -53 -6 -116 -12 -141 -10
-39 -16 -45 -41 -48 -27 -3 -28 -2 -21 25 8 33 25 184 25 231 0 27 -5 35 -35
49 -19 9 -35 20 -35 25 0 8 27 -2 93 -32z m-343 -221 c0 -6 -7 -9 -15 -5 -8 3
-15 1 -15 -4 0 -6 6 -10 13 -11 10 0 10 -2 0 -6 -7 -2 -13 -13 -13 -24 0 -10
-3 -19 -8 -19 -4 0 -7 18 -7 40 0 35 2 40 22 40 13 0 23 -5 23 -11z m46 -1 c5
-8 2 -9 -9 -5 -14 5 -17 0 -17 -23 0 -23 3 -28 17 -23 11 4 14 3 9 -5 -17 -27
-36 -12 -36 28 0 40 19 55 36 28z m-121 -568 c-2 -12 2 -20 10 -20 8 0 11 7 8
20 -4 15 0 20 16 20 16 0 21 -6 20 -27 l-1 -28 -8 25 c-8 24 -8 24 -9 3 -1
-30 -51 -34 -51 -5 0 16 8 32 16 32 2 0 1 -9 -1 -20z m155 7 c0 -43 0 -42 -10
-27 -6 10 -10 11 -10 3 0 -8 -13 -13 -33 -13 -29 0 -33 3 -31 23 1 12 3 22 3
23 6 5 81 -3 81 -9z"/>
<path d="M688 1203 c7 -3 16 -2 19 1 4 3 -2 6 -13 5 -11 0 -14 -3 -6 -6z"/>
<path d="M480 809 c-74 -3 -138 -7 -142 -8 -10 -2 -7 -91 3 -91 12 0 11 -87
-1 -95 -16 -10 -13 -85 4 -85 8 0 58 9 111 20 120 25 125 25 125 0 0 -10 6
-23 14 -27 8 -4 16 -26 18 -47 3 -38 5 -40 53 -54 79 -24 361 -21 445 4 l65
19 3 68 c3 63 4 67 25 62 12 -2 36 -7 52 -9 17 -3 49 -10 72 -17 36 -10 47 -9
68 5 25 17 26 19 23 118 -4 136 -3 135 -200 140 l-148 4 0 -23 c0 -30 -18 -30
-22 0 -2 18 -10 23 -44 25 -36 3 -42 0 -49 -20 l-8 -23 -4 23 c-4 22 -6 22
-166 20 -89 -1 -223 -5 -297 -9z m106 -31 c4 -6 2 -14 -4 -16 -15 -5 -17 -132
-2 -132 6 0 10 -7 10 -15 0 -8 -9 -15 -19 -15 -11 0 -25 -2 -33 -5 -10 -4 -13
15 -13 90 0 75 3 95 15 99 28 7 39 6 46 -6z m94 -38 c24 -44 25 -44 28 -17 2
16 -1 34 -7 41 -15 17 -4 26 32 26 26 0 29 -3 23 -22 -3 -13 -6 -51 -6 -85 0
-59 -2 -63 -22 -63 -17 0 -30 13 -50 48 l-27 47 -1 -37 c0 -21 5 -38 10 -38 6
0 10 -6 10 -14 0 -8 -13 -15 -32 -18 l-33 -3 0 93 0 93 25 -3 c18 -2 32 -16
50 -48z m240 25 c0 -18 -5 -25 -19 -25 -11 0 -22 6 -25 13 -3 6 -4 -21 -2 -60
l3 -73 -27 0 -27 0 3 73 c2 39 1 66 -2 60 -3 -7 -14 -13 -25 -13 -14 0 -19 7
-19 25 0 24 2 25 70 25 68 0 70 -1 70 -25z m125 -47 c11 -37 23 -70 28 -74 15
-16 6 -24 -28 -24 -35 0 -50 22 -22 33 7 3 5 6 -5 6 -31 2 -33 0 -30 -19 3
-16 -3 -20 -27 -20 -31 0 -51 18 -33 29 6 4 21 37 32 75 18 58 24 67 43 64 17
-2 26 -17 42 -70z m105 65 c0 -5 12 -26 26 -48 l25 -40 -5 43 -6 42 35 0 c24
0 35 -5 35 -15 0 -8 -4 -15 -10 -15 -6 0 -10 -32 -10 -75 0 -65 -2 -75 -18
-75 -11 0 -28 19 -45 53 l-28 52 5 -47 c6 -47 5 -48 -24 -48 -29 0 -53 21 -32
28 15 5 16 122 2 122 -5 0 -10 7 -10 15 0 10 10 15 30 15 17 0 30 -3 30 -7z
m-662 -16 c6 -7 11 -44 11 -84 0 -83 -9 -96 -83 -113 -55 -12 -66 -8 -48 20
16 26 16 147 0 152 -6 2 -9 12 -5 21 5 13 19 17 60 17 32 0 59 -5 65 -13z
m894 -4 c25 -22 24 -53 -2 -53 -11 0 -20 6 -20 14 0 18 -40 28 -46 12 -3 -8
-4 -38 -2 -67 3 -47 6 -54 26 -57 15 -2 22 2 22 12 0 9 -4 16 -10 16 -5 0 -10
9 -10 19 0 16 5 18 28 12 21 -6 28 -14 30 -40 5 -44 -14 -64 -52 -57 -55 11
-76 42 -76 109 0 42 5 66 17 79 20 22 70 23 95 1z m-589 -100 c-8 -65 -13 -67
-13 -5 0 29 4 52 10 52 6 0 7 -19 3 -47z m131 32 c-4 -8 -10 -15 -15 -15 -5 0
-9 7 -9 15 0 8 7 15 15 15 9 0 12 -6 9 -15z m-224 -131 c0 -23 -2 -25 -16 -13
-15 13 -16 9 -12 -44 5 -57 2 -62 -25 -51 -11 4 -13 17 -9 50 4 36 2 44 -12
44 -9 0 -16 8 -16 20 0 17 7 20 45 20 42 0 45 -2 45 -26z m132 -23 l20 -46 20
48 c13 28 27 47 37 47 13 0 16 -13 16 -85 0 -82 -1 -85 -23 -85 -20 0 -22 3
-17 43 l5 42 -19 -40 -19 -40 -21 45 -21 45 4 -42 c4 -39 2 -43 -17 -43 -20 0
-22 5 -22 62 0 35 -4 63 -10 63 -6 0 -10 -27 -9 -61 0 -51 -2 -61 -15 -57 -13
3 -16 19 -16 78 l0 73 44 -1 c41 0 44 -2 63 -46z m28 39 c0 -5 -2 -10 -4 -10
-3 0 -8 5 -11 10 -3 6 -1 10 4 10 6 0 11 -4 11 -10z m122 -55 c-4 -58 -3 -65
13 -65 16 0 17 7 12 66 -5 62 -4 65 16 62 19 -3 21 -9 18 -63 -3 -72 -24 -101
-65 -91 -24 6 -26 11 -26 59 0 28 -3 62 -6 75 -5 18 -2 22 19 22 24 0 25 -1
19 -65z m152 59 c19 -7 21 -55 4 -72 -10 -10 -10 -15 2 -22 12 -8 12 -12 2
-22 -11 -11 -17 -8 -33 12 l-20 25 7 -27 c5 -23 3 -28 -12 -28 -17 0 -19 8
-19 70 0 69 0 70 27 70 14 0 33 -3 42 -6z"/>
<path d="M996 711 c-4 -7 -5 -15 -2 -18 9 -9 19 4 14 18 -4 11 -6 11 -12 0z"/>
<path d="M420 720 c0 -32 1 -33 24 -24 24 9 21 54 -4 54 -16 0 -20 -7 -20 -30z"/>
<path d="M420 635 c0 -18 5 -25 20 -25 15 0 20 7 20 25 0 18 -5 25 -20 25 -15
0 -20 -7 -20 -25z"/>
<path d="M1097 563 c-13 -12 -7 -43 8 -43 9 0 15 9 15 25 0 24 -10 32 -23 18z"/>
</g>
</svg>
